<svg xmlns="http://www.w3.org/2000/svg" viewBox="0 0 32 32" width="32" height="32">
  <defs>
    <linearGradient id="grad1" x1="0%" y1="0%" x2="100%" y2="100%">
      <stop offset="0%" style="stop-color:#6366f1;stop-opacity:1" />
      <stop offset="100%" style="stop-color:#8b5cf6;stop-opacity:1" />
    </linearGradient>
    <filter id="glow">
      <feGaussianBlur stdDeviation="2" result="coloredBlur"/>
      <feMerge> 
        <feMergeNode in="coloredBlur"/>
        <feMergeNode in="SourceGraphic"/>
      </feMerge>
    </filter>
  </defs>
  
  <!-- Background circle -->
  <circle cx="16" cy="16" r="15" fill="url(#grad1)" stroke="#4f46e5" stroke-width="1"/>
  
  <!-- Brain/Knowledge icon -->
  <g transform="translate(8, 8)" filter="url(#glow)">
    <!-- Brain outline -->
    <path d="M8 2C4.5 2 2 4.5 2 8c0 2.5 1.5 4.5 3.5 5.5C4 14.5 3 16 3 18c0 2 1.5 3.5 3.5 3.5S10 20 10 18c0-2-1-3.5-2.5-4.5C9.5 12.5 11 10.5 11 8c0-3.5-2.5-6-6-6z" 
          fill="none" stroke="#ffffff" stroke-width="1.5" stroke-linecap="round" stroke-linejoin="round"/>
    
    <!-- Brain details -->
    <path d="M4 6c0-1 1-2 2-2s2 1 2 2-1 2-2 2-2-1-2-2z" fill="#ffffff"/>
    <path d="M8 6c0-1 1-2 2-2s2 1 2 2-1 2-2 2-2-1-2-2z" fill="#ffffff"/>
    
    <!-- Knowledge rays -->
    <path d="M8 1L8 0M12 3L13 2M14 7L15 7M12 11L13 12M8 15L8 16M4 11L3 12M2 7L1 7M4 3L3 2" 
          stroke="#ffffff" stroke-width="1" stroke-linecap="round" opacity="0.8"/>
    
    <!-- Central sparkle -->
    <circle cx="8" cy="8" r="1" fill="#ffffff" opacity="0.9"/>
  </g>
  
  <!-- Subtle glow effect -->
  <circle cx="16" cy="16" r="14" fill="none" stroke="#ffffff" stroke-width="0.5" opacity="0.3"/>
</svg> 